<svg xmlns="http://www.w3.org/2000/svg" viewBox="0 0 796 502.84"><defs><style>.cls-1{fill:#82bae6;}.cls-2{fill:#becbe2;}.cls-14,.cls-3{font-size:32px;}.cls-20,.cls-24,.cls-3,.cls-31,.cls-33{font-family:MyriadPro-Bold, Myriad Pro;}.cls-14,.cls-20,.cls-24,.cls-3,.cls-31,.cls-33{font-weight:700;}.cls-3{letter-spacing:0.01em;}.cls-4{letter-spacing:0em;}.cls-5{letter-spacing:0em;}.cls-6{letter-spacing:0em;}.cls-7{letter-spacing:-0.01em;}.cls-8{letter-spacing:0em;}.cls-9{letter-spacing:0.01em;}.cls-10{letter-spacing:0em;}.cls-11{letter-spacing:-0.01em;}.cls-12{letter-spacing:-0.04em;}.cls-13{letter-spacing:-0.08em;}.cls-14{font-family:MyriadPro-Semibold, Myriad Pro;letter-spacing:0.01em;}.cls-15{letter-spacing:-0.01em;}.cls-16{letter-spacing:-0.01em;}.cls-17{letter-spacing:-0.01em;}.cls-18{letter-spacing:-0.01em;}.cls-19{letter-spacing:0.01em;}.cls-20{font-size:50px;letter-spacing:0.01em;}.cls-20,.cls-24,.cls-25,.cls-28{fill:#102d98;}.cls-21{letter-spacing:0em;}.cls-22{letter-spacing:0em;}.cls-23{letter-spacing:0em;}.cls-24{font-size:41px;letter-spacing:0em;}.cls-25,.cls-28{font-size:35px;font-family:MyriadPro-Regular, Myriad Pro;}.cls-25{letter-spacing:-0.01em;}.cls-26{letter-spacing:0em;}.cls-27{letter-spacing:-0.07em;}.cls-28{letter-spacing:-0.03em;}.cls-29{letter-spacing:0em;}.cls-30{letter-spacing:-0.04em;}.cls-31,.cls-33{font-size:28px;}.cls-31{letter-spacing:0em;}.cls-32{letter-spacing:0em;}.cls-34{letter-spacing:0em;}.cls-35{letter-spacing:-0.01em;}.cls-36{letter-spacing:0.01em;}.cls-37,.cls-39{font-size:51px;}.cls-37,.cls-38,.cls-39,.cls-40{font-family:EdwardianScriptITC, Edwardian Script ITC;}.cls-37{letter-spacing:0em;}.cls-38{font-size:31.12px;letter-spacing:0em;}.cls-39{letter-spacing:0em;}.cls-40{font-size:22.72px;letter-spacing:0em;}.cls-41{fill:#966;}.cls-42{fill:#fcfcfc;}.cls-43{fill:#b91c52;}.cls-44{fill:#a57272;}.cls-45{fill:#020000;}</style></defs><title>ID Card Vector</title><g id="Layer_2" data-name="Layer 2"><rect class="cls-1" width="796" height="502.84" rx="12" ry="12"/><rect class="cls-2" x="537" y="135.84" width="223" height="219"/><text class="cls-3" transform="translate(55 57.84)">I<tspan class="cls-4" x="9.31" y="0">n</tspan><tspan class="cls-5" x="27.97" y="0">t</tspan><tspan class="cls-6" x="39.65" y="0">ern</tspan><tspan class="cls-7" x="87.74" y="0">a</tspan><tspan class="cls-8" x="104.48" y="0">tional </tspan><tspan class="cls-9" x="195.04" y="0">I</tspan><tspan class="cls-8" x="204.35" y="0">nstitue of </tspan><tspan class="cls-9" x="348.15" y="0">I</tspan><tspan class="cls-10" x="357.47" y="0">n</tspan><tspan class="cls-11" x="376.31" y="0">f</tspan><tspan class="cls-6" x="387" y="0">orm</tspan><tspan class="cls-7" x="445.43" y="0">a</tspan><tspan class="cls-6" x="462.17" y="0">tion</tspan><tspan class="cls-12" x="520.28" y="0"> </tspan><tspan class="cls-13" x="525.59" y="0">T</tspan><tspan class="cls-6" x="540.63" y="0">echnol</tspan><tspan class="cls-9" x="637.3" y="0">o</tspan><tspan class="cls-6" x="655.96" y="0">gy</tspan></text><text class="cls-14" transform="translate(174 93.84)">H<tspan class="cls-15" x="21.73" y="0">y</tspan><tspan class="cls-8" x="37.41" y="0">de</tspan><tspan class="cls-16" x="72.7" y="0">r</tspan><tspan class="cls-8" x="83.9" y="0">aba</tspan><tspan class="cls-17" x="135.42" y="0">d</tspan><tspan class="cls-8" x="153.79" y="0">. (Deemed Uni</tspan><tspan class="cls-18" x="350.4" y="0">v</tspan><tspan class="cls-6" x="366.33" y="0">ersi</tspan><tspan class="cls-19" x="416.16" y="0">t</tspan><tspan class="cls-6" x="427.71" y="0">y)</tspan></text><text class="cls-20" transform="translate(47 164.84)">D<tspan class="cls-21" x="35.1" y="0">h</tspan><tspan class="cls-22" x="64.55" y="0">r</tspan><tspan class="cls-23" x="83.55" y="0">uv Kapur</tspan></text><text class="cls-24" transform="translate(49 216.84)">2019101038</text><text class="cls-25" transform="translate(49 263.84)">B<tspan class="cls-26" x="18.62" y="0">.</tspan><tspan class="cls-27" x="25.97" y="0">T</tspan><tspan class="cls-26" x="40.98" y="0">ech in CSE</tspan></text><text class="cls-28" transform="translate(50 320.84)">V<tspan class="cls-26" x="18.48" y="0">alid up</tspan><tspan class="cls-29" x="118.89" y="0">t</tspan><tspan class="cls-26" x="130.37" y="0">o: Jul</tspan><tspan class="cls-30" x="205.38" y="0">y</tspan><tspan class="cls-26" x="220.6" y="0">, 2023</tspan></text><text class="cls-31" transform="translate(50 465.84)">S<tspan class="cls-26" x="15.06" y="0">tude</tspan><tspan class="cls-29" x="73.47" y="0">n</tspan><tspan class="cls-26" x="89.8" y="0">t Sign</tspan><tspan class="cls-7" x="161.81" y="0">a</tspan><tspan class="cls-26" x="176.45" y="0">tu</tspan><tspan class="cls-32" x="203.22" y="0">r</tspan><tspan class="cls-26" x="213.72" y="0">e</tspan></text><text class="cls-33" transform="translate(529 464.84)">I<tspan class="cls-34" x="7.98" y="0">ssuing </tspan><tspan class="cls-35" x="95.31" y="0">A</tspan><tspan class="cls-26" x="113.34" y="0">uthori</tspan><tspan class="cls-36" x="191.32" y="0">t</tspan><tspan class="cls-26" x="201.82" y="0">y</tspan></text><text class="cls-37" transform="matrix(0.98, -0.18, 0.18, 0.98, 78.01, 434.87)">LOL</text><text class="cls-38" transform="translate(154.87 443.64) rotate(-17.89)">Never</text><text class="cls-39" transform="translate(576.83 429.22) rotate(-11.36)">I’m sure</text><text class="cls-40" transform="translate(623.52 445.37) rotate(-14.86)">That’s illegal</text></g><g id="Neck"><path class="cls-41" d="M633,282l-7,57,32,24,30-31-4-27s-6,2-9-26Z" transform="translate(-2 -53.16)"/></g><g id="Inner"><path class="cls-42" d="M642,337.67s13.5,20.83,37.5-17.17l1,87-50-2S626.5,357.83,642,337.67Z" transform="translate(-2 -53.16)"/></g><g id="Shirt"><path class="cls-43" d="M555,406s6-68,16-76c0,0,45-26,52-26,0,0,6-5,8-5,0,0,5,32,11,35,0,0,0,4-5,18,0,0-5,0-7,54Z" transform="translate(-2 -53.16)"/><path class="cls-43" d="M679,298l-4,15s2,10,4,8c0,0-5,11,1,32,0,0-4,33,0,55h74s-2-65-13-75c0,0-37-24-54-25Z" transform="translate(-2 -53.16)"/></g><g id="Face"><polygon class="cls-44" points="624 184.84 623 205.84 619 198.84 614.5 199.34 613.5 206.34 617.5 209.34 618.5 218.34 622.5 221.34 625.5 221.34 628.5 227.34 632.5 240.34 643.5 248.34 659.5 248.34 671.5 239.34 677.5 224.34 680.5 217.34 686.5 217.34 689.5 214.34 688.5 207.34 692.5 201.34 692.5 195.34 690.5 195.34 684.5 198.34 682.5 206.34 680.5 181.34 677.5 155.34 645.5 153.34 623.5 169.34 624 184.84"/></g><g id="Hair"><polygon class="cls-45" points="623.5 209.34 624 186.84 646.5 172.34 669 169.84 674 173.84 676 179.84 681.5 211.34 684.5 200.34 689.5 195.34 692.5 186.34 692.5 169.34 681.5 153.34 672.5 143.34 642.5 144.34 626.5 154.34 614.5 168.34 612.5 177.34 613.5 188.34 613.5 195.34 619.5 204.34 624.5 216.34 623.5 209.34"/></g></svg>